PathFileType	4	(X/Y/Z)	./resultDataOpenSim/trcMotMarkerGrf/sub09/qtm-01-05.trc
DataRate	CameraRate	NumFrames	NumMarkers	Units	OrigDataRate	OrigDataStartFrame	OrigNumFrames
250.000000	250.000000	11	24	m	250.000000	349	465
Frame#	Time	L.Toe.Tip			R.Toe.Tip			L.Ankle.Lat			R.Ankle.Lat			L.Ankle.Med			R.Ankle.Med			L.Heel			R.Heel			L.Knee.Lat			R.Knee.Lat			L.Knee.Med			R.Knee.Med			L.Thigh.Upper			R.Thigh.Upper			L.ASIS			R.ASIS			V.Sacral			L.Acromium			R.Acromium			C7			L.Elbow			R.Elbow			L.Wrist.Lat			R.Wrist.Lat
		X1	Y1	Z1	X2	Y2	Z2	X3	Y3	Z3	X4	Y4	Z4	X5	Y5	Z5	X6	Y6	Z6	X7	Y7	Z7	X8	Y8	Z8	X9	Y9	Z9	X10	Y10	Z10	X11	Y11	Z11	X12	Y12	Z12	X13	Y13	Z13	X14	Y14	Z14	X15	Y15	Z15	X16	Y16	Z16	X17	Y17	Z17	X18	Y18	Z18	X19	Y19	Z19	X20	Y20	Z20	X21	Y21	Z21	X22	Y22	Z22	X23	Y23	Z23	X24	Y24	Z24

349	1.392	0.85160807	0.089065601	0.01653956	1.074269	0.039986451	0.14583091	0.76222138	0.2129502	-0.017412356	0.92590252	0.057466938	0.18340996	0.78704232	0.20578779	0.078322461	0.93711372	0.099184448	0.093441451	0.68189491	0.22455318	0.027278325	0.85575432	0.040457536	0.13456369	1.0608053	0.4953422	-0.023018613	1.0206587	0.50663818	0.24908795	1.0610613	0.48430177	0.10225241	1.0001871	0.49649113	0.12338205	0.93201886	0.88870351	-0.057589352	0.9422483	0.90865452	0.31175726	1.0080543	0.9805424	-0.0045353986	1.0246891	0.99411376	0.23281023	0.84941754	1.0401489	0.11984637	0.99007436	1.43868	-0.057674137	0.97530513	1.4533301	0.27281936	0.91767222	1.4934048	0.1075704	0.84907007	1.0972983	-0.10882413	0.82863041	1.1219571	0.36997675	0.99283868	0.87239318	-0.13267979	0.98594776	0.8972242	0.40066131
350	1.396	0.87129747	0.087172149	0.016955955	1.0743147	0.040000239	0.14593136	0.77874583	0.20852032	-0.016767233	0.92594056	0.057781559	0.1832532	0.80389556	0.2018744	0.078923786	0.93739915	0.099604721	0.093408491	0.69804193	0.21812193	0.028104647	0.85590397	0.040929848	0.1341805	1.070852	0.49808778	-0.02255131	1.0212826	0.50681276	0.24910918	1.072286	0.48738084	0.10283927	1.0009943	0.49693383	0.12343093	0.93869587	0.89040949	-0.057528364	0.94691984	0.90956899	0.31182219	1.0137853	0.98219678	-0.0042232837	1.02999	0.99508938	0.23321934	0.85482795	1.0412954	0.11981027	0.99573555	1.4397962	-0.05763505	0.98149193	1.4547102	0.27280543	0.92363717	1.4946316	0.10766529	0.85343558	1.0990072	-0.10852676	0.83481224	1.1231884	0.37057579	0.99622358	0.87361329	-0.13340086	0.99423131	0.89958131	0.40024483
351	1.4	0.89117082	0.085300485	0.017396231	1.0743764	0.040019053	0.14603285	0.79544144	0.20399196	-0.01611655	0.92600632	0.058109248	0.18311094	0.82140714	0.19787577	0.079376223	0.93769384	0.10003386	0.093406831	0.71439073	0.21153431	0.028992535	0.85623866	0.041438137	0.13382732	1.0808273	0.50070618	-0.022108122	1.0219837	0.50701902	0.24911659	1.0862836	0.49051366	0.10421524	1.0018319	0.4974043	0.12367137	0.94529906	0.89204671	-0.057592096	0.95163183	0.91047013	0.31187012	1.0195539	0.98376646	-0.003926672	1.03527	0.99602679	0.2336058	0.86023213	1.04237	0.11974336	1.0014149	1.4408411	-0.057602528	0.9876537	1.4560322	0.27280156	0.92960666	1.4958056	0.10776595	0.85782193	1.1006449	-0.10823369	0.84098867	1.1243445	0.37115386	0.9996597	0.87478046	-0.13411221	1.0025054	0.90189728	0.39982639
352	1.404	0.91127174	0.083480971	0.017854983	1.0744403	0.040025333	0.14614326	0.81226939	0.1993798	-0.01543492	0.92606856	0.058449714	0.18298948	0.83933502	0.19383938	0.079758947	0.93804807	0.10045868	0.093405695	0.73094539	0.20477299	0.029934914	0.85677757	0.041937751	0.13357529	1.0907271	0.50314541	-0.021693741	1.0228451	0.50726583	0.24924268	1.1023233	0.49371321	0.10608068	1.0026902	0.49782482	0.12391107	0.95176167	0.89360432	-0.057740779	0.95642714	0.91137259	0.31190157	1.02542	0.98524114	-0.0036647656	1.0405361	0.99692791	0.23397355	0.86558627	1.043369	0.11967158	1.0071085	1.4418136	-0.057573766	0.99379308	1.4572908	0.27280814	0.93556564	1.4969267	0.10786306	0.86223695	1.1022119	-0.10794701	0.84716439	1.1254343	0.37176106	1.0031366	0.8758898	-0.13481289	1.0107574	0.90416044	0.39941279
353	1.408	0.93156531	0.081713159	0.018308782	1.0744952	0.040007988	0.14626724	0.82922471	0.1946886	-0.014709626	0.92612974	0.058800875	0.18288628	0.85723355	0.18978372	0.080215887	0.93850861	0.10087357	0.093376799	0.74775153	0.19783672	0.030889246	0.85740509	0.042408719	0.13343167	1.1005159	0.50543055	-0.02131959	1.0238815	0.50754622	0.24956799	1.1180568	0.49685892	0.10770741	1.0035045	0.49819636	0.12398235	0.95804321	0.89506979	-0.05788996	0.9613565	0.91229273	0.31192692	1.0314236	0.98661046	-0.0034607184	1.0457991	0.9977946	0.23432963	0.87094022	1.0443081	0.11960328	1.0128135	1.4427159	-0.057543553	0.99990709	1.4584792	0.27282172	0.94150418	1.497995	0.10794808	0.86668488	1.1037139	-0.10767767	0.85334441	1.1264512	0.3723969	1.0066423	0.87693802	-0.13551016	1.0189723	0.90635544	0.39901039
354	1.412	0.95195524	0.079976305	0.01873051	1.074551	0.039980356	0.14640151	0.84632901	0.18991837	-0.013945873	0.92620928	0.059160487	0.18279831	0.87489053	0.18570489	0.080817924	0.93906271	0.10127279	0.093344089	0.76488804	0.19075937	0.031765289	0.85793097	0.042869729	0.13331472	1.1100968	0.50763055	-0.021004726	1.0249927	0.50784448	0.25003998	1.1322033	0.4998531	0.10871038	1.0043689	0.49855117	0.12397378	0.96419353	0.8964354	-0.057979178	0.96643308	0.91323542	0.31195673	1.0375179	0.98787121	-0.0033016894	1.0510673	0.99862638	0.23468082	0.87638931	1.0452186	0.11954071	1.0185273	1.4435509	-0.057508774	1.0059881	1.4595943	0.27283386	0.94741612	1.4990111	0.10802987	0.8711626	1.1051567	-0.10742859	0.85953766	1.1273862	0.37303452	1.0101724	0.87792307	-0.13620581	1.0271542	0.90847882	0.39861739
355	1.416	0.9723666	0.078272329	0.019128014	1.0746307	0.039964793	0.14653593	0.86359513	0.1850776	-0.013155686	0.92631364	0.059526441	0.18272311	0.89235324	0.18160671	0.081567406	0.93965686	0.10166001	0.093360353	0.7823669	0.18360406	0.032536796	0.85827219	0.043341877	0.13315261	1.1193973	0.5097734	-0.020765465	1.0260475	0.50815394	0.25055156	1.1448888	0.50265329	0.10923158	1.0054577	0.49889804	0.12406562	0.97032888	0.89770024	-0.057994783	0.97153451	0.91417255	0.3119981	1.0435822	0.98903546	-0.0031309085	1.0563425	0.99942105	0.23503083	0.88193398	1.0460907	0.11948692	1.0242473	1.4443204	-0.057470561	1.0120313	1.4606365	0.27283664	0.95330137	1.4999709	0.10812427	0.87566691	1.1065363	-0.10720201	0.86574962	1.1282397	0.3736492	1.0137289	0.87884226	-0.13689874	1.0353148	0.91053852	0.39822604
356	1.42	0.99278015	0.076620318	0.019535464	1.0747396	0.039954004	0.14665769	0.88101803	0.18018758	-0.012350748	0.92643004	0.059897348	0.18266264	0.90971106	0.17751516	0.082459176	0.94020865	0.10204593	0.093422604	0.80007248	0.17642664	0.033329045	0.85848026	0.043817434	0.13294551	1.1284422	0.51183553	-0.020596152	1.0269597	0.50847615	0.25102654	1.1560601	0.50519127	0.10947855	1.0067893	0.49924061	0.12429943	0.97650957	0.89887054	-0.057971825	0.97638895	0.91504205	0.31205692	1.0495367	0.99012295	-0.0028993639	1.0616208	1.0001769	0.23537901	0.8874986	1.0468896	0.11944539	1.0299732	1.4450288	-0.057433058	1.0180392	1.4616066	0.27283091	0.9591673	1.5008641	0.10823038	0.88019988	1.107843	-0.10700656	0.8719684	1.1290161	0.37422476	1.0173145	0.87969367	-0.13758919	1.0434548	0.91253922	0.39782866
357	1.424	1.0132162	0.075031228	0.019978805	1.0748491	0.039910221	0.14675903	0.89858836	0.17527426	-0.011539213	0.9265443	0.06027278	0.18262313	0.92706036	0.17345987	0.083451585	0.94055357	0.10241649	0.093469706	0.81786086	0.16925056	0.034291564	0.85862469	0.044269545	0.13271367	1.1373095	0.51379451	-0.020466821	1.0277076	0.50880756	0.25143998	1.1656098	0.50742596	0.10954186	1.0081936	0.49959862	0.12458293	0.9827077	0.8999561	-0.057971166	0.98077967	0.91579133	0.31213624	1.0554006	0.99114517	-0.0026072383	1.0668965	1.0008917	0.23572241	0.89299928	1.0476024	0.11941387	1.0357111	1.4456866	-0.057403045	1.0240214	1.4625085	0.27282824	0.96501296	1.5016792	0.1083187	0.88476493	1.1090762	-0.10684758	0.87815654	1.1297086	0.37474228	1.0209275	0.88047675	-0.13827693	1.0515686	0.9144772	0.39742092
358	1.428	1.0337213	0.073524109	0.0204644	1.0749165	0.039815665	0.14684561	0.91630162	0.1703623	-0.010726818	0.92665005	0.060651324	0.18260255	0.9445608	0.16945131	0.084423795	0.94060829	0.1027563	0.09348173	0.83567816	0.1620778	0.035434234	0.8587379	0.044684177	0.13246292	1.1460528	0.51564683	-0.020349361	1.0283314	0.50913794	0.25179813	1.1739095	0.50938874	0.10946491	1.0094795	0.49998796	0.12480251	0.98887725	0.90095944	-0.058017337	0.98480477	0.91643147	0.31223227	1.0612395	0.99209945	-0.0022918797	1.0721674	1.001561	0.23605975	0.89837242	1.0482439	0.11936582	1.0414676	1.4463035	-0.057388612	1.0299926	1.4633507	0.27284738	0.97080924	1.5024148	0.10833913	0.88936244	1.1102422	-0.10672071	0.88427026	1.1303029	0.37519041	1.0245671	0.88119311	-0.13896026	1.0596551	0.91634748	0.39700604
359	1.432	1.0543395	0.072146153	0.020981103	1.0749304	0.039710181	0.14693343	0.93415538	0.16547084	-0.0099208516	0.92673982	0.061028814	0.1825848	0.96236813	0.16548951	0.085241661	0.94057482	0.10308918	0.093535346	0.85356131	0.15491452	0.036642073	0.85884127	0.045089515	0.13221417	1.1546473	0.51737934	-0.020247932	1.0289321	0.5094594	0.25210737	1.1811617	0.51110372	0.10921029	1.0105625	0.5004021	0.12489463	0.99501362	0.90187066	-0.058071495	0.98881193	0.9170273	0.31233654	1.067105	0.99297279	-0.001989214	1.0774382	1.00218	0.23639328	0.90360452	1.048839	0.11924988	1.0472388	1.4468751	-0.057389077	1.0359624	1.4641398	0.27290283	0.97652152	1.5030909	0.10825924	0.8939898	1.1113422	-0.1066233	0.89031352	1.1307988	0.37559483	1.0282365	0.88184546	-0.13963544	1.0677132	0.9181484	0.39659232
